<svg width="56" height="56" viewBox="0 0 56 56" fill="none" xmlns="http://www.w3.org/2000/svg">
<path fill-rule="evenodd" clip-rule="evenodd" d="M32.6033 9.00435C31.3972 9.00361 30.1911 9.00288 28.9849 9.00295C27.7653 9.00303 26.5456 9.00225 25.326 9.00148C22.5569 8.99972 19.7878 8.99796 17.0187 9.00614C13.869 9.01523 11.2157 10.9352 10.4381 14.0162C10.1785 15.0454 10.1554 16.1371 10.1323 17.2254C10.1241 17.6148 10.1159 18.0038 10.0968 18.3893C10.0567 19.2032 10.4681 19.7419 11.3051 19.777C12.2063 19.8145 12.6338 19.2803 12.6641 18.4053C12.6749 18.0966 12.6763 17.7869 12.6778 17.4773V17.4772C12.6805 16.8858 12.6833 16.2946 12.7508 15.7107C13.0494 13.1313 14.6754 11.6666 17.2388 11.6631C25.0941 11.6531 32.9494 11.6533 40.8047 11.671C43.4494 11.6771 45.2093 13.4282 45.3038 16.1082C45.3325 16.9219 45.3271 17.737 45.3216 18.552C45.3194 18.8827 45.3172 19.2134 45.3173 19.544C45.3177 21.3579 45.3188 23.1719 45.3199 24.9858V24.9906V24.9907C45.3228 29.8428 45.3257 34.6948 45.3168 39.5468C45.3114 42.561 43.5434 44.3164 40.5391 44.3375C39.0738 44.3479 37.6083 44.353 36.1433 44.3366C35.1947 44.326 34.5023 44.6444 34.5273 45.7036C34.5505 46.6832 35.2215 47.0012 36.1098 46.9977C37.6156 46.9918 39.1217 46.994 40.6275 46.9999C44.8421 47.0166 47.9263 44.0741 47.9557 39.8217C48.0101 31.9271 48.0179 24.0316 47.9549 16.1372C47.921 11.8986 44.815 8.9892 40.5848 9.0005C37.9244 9.00759 35.2639 9.00597 32.6033 9.00435ZM14.5159 19.5019C11.0426 22.8787 11.3308 27.6538 15.1958 31.7672C14.7723 32.1398 14.3437 32.4988 13.9184 32.8551C12.9801 33.6411 12.0582 34.4135 11.2439 35.2874C9.36329 37.3051 8.25712 39.7457 8.01038 42.5336C7.93147 43.4241 8.27764 44.1299 9.1979 44.2345C10.1262 44.3401 10.5811 43.7612 10.6612 42.8287C10.9314 39.6915 12.5643 37.3014 14.9239 35.3991C17.4221 33.3851 20.273 32.683 23.2546 34.089C26.9049 35.8103 29.2152 38.6819 29.6994 42.8238C29.8002 43.6853 30.2265 44.1994 31.0466 44.3087C31.8704 44.4182 32.1626 43.826 32.3536 43.1422C32.9236 41.1033 33.496 39.0652 34.0684 37.027L34.0689 37.0253C34.798 34.4293 35.527 31.8334 36.2511 29.2361L36.2745 29.1527C36.4568 28.5047 36.6701 27.7466 35.7686 27.4981C34.9131 27.2624 34.4836 27.8013 34.2579 28.6584C33.6741 30.8756 33.0488 33.082 32.4235 35.2883L32.4229 35.2905C32.2364 35.9485 32.0499 36.6065 31.8645 37.2648C31.7921 37.5217 31.706 37.7747 31.5958 38.0987C31.5361 38.2742 31.4693 38.4705 31.3938 38.6996C29.8511 35.608 27.755 33.4625 25.0177 31.9231C29.8354 27.6359 28.5744 22.1375 25.8673 19.4839C22.7489 16.4273 17.6994 16.4069 14.5159 19.5019ZM20.071 19.7989C23.129 19.7582 25.6206 22.2023 25.6338 25.2556C25.647 28.3017 23.1613 30.7954 20.1274 30.7795C17.1724 30.764 14.7453 28.2673 14.7534 25.2514C14.7612 22.3116 17.1741 19.8377 20.071 19.7989ZM35.5441 15.7798C36.0664 15.7798 36.5887 15.7812 37.1109 15.7826C38.3737 15.7861 39.6364 15.7895 40.8988 15.773C41.7805 15.7614 42.4594 15.9586 42.4449 17.0128C42.4315 17.9819 41.7951 18.2195 40.9645 18.2176C37.3133 18.2095 33.6618 18.2041 30.0106 18.2112C29.1331 18.2129 28.4537 17.9907 28.4625 16.9497C28.4718 15.8611 29.2235 15.7761 30.0673 15.7852C31.3614 15.799 32.6557 15.7962 33.95 15.7934H33.9501C34.4813 15.7923 35.0126 15.7911 35.5439 15.7911C35.5441 15.7874 35.5441 15.7835 35.5441 15.7798ZM37.5936 24.2097C37.879 24.2112 38.1644 24.2126 38.4498 24.2126C38.7123 24.2124 38.9748 24.2111 39.2374 24.2098C39.8702 24.2066 40.5031 24.2034 41.1356 24.2167C41.9076 24.2329 42.4071 23.9319 42.4433 23.1141C42.4802 22.2767 42.0663 21.7871 41.2133 21.78C39.3415 21.7645 37.4692 21.7584 35.5977 21.7832C34.821 21.7935 34.365 22.2759 34.3896 23.0338C34.4133 23.7679 34.8179 24.2371 35.6421 24.218C36.2923 24.2029 36.943 24.2063 37.5936 24.2097Z" fill="white"/>
</svg>
