<svg width="56" height="56" viewBox="0 0 56 56" fill="none" xmlns="http://www.w3.org/2000/svg">
<path d="M39.9286 42.4822C39.9286 44.3472 39.9286 46.1794 39.9286 48.0617C39.6371 47.9668 39.3827 47.8863 39.13 47.8014C37.7476 47.3369 36.3465 46.9546 34.8777 46.8429C32.3057 46.6474 30.1323 47.4129 28.4207 49.313C28.2096 49.5475 27.9922 49.7767 27.7855 50C27.2458 49.507 26.7503 48.9999 26.1973 48.5597C24.5046 47.2125 22.5251 46.7659 20.3729 46.9014C18.9891 46.9886 17.6582 47.32 16.338 47.7038C16.2283 47.7357 16.1173 47.764 16.0058 47.7904C15.9768 47.7973 15.9444 47.7914 15.8864 47.7914C15.8864 46.0268 15.8864 44.2655 15.8864 42.5241C15.4966 42.4221 15.123 42.3623 14.7809 42.2278C13.6285 41.7747 12.8933 40.9133 12.4528 39.824C11.7558 38.1012 11.8612 36.4124 12.7848 34.7787C12.8548 34.6548 12.8794 34.4928 12.8798 34.3483C12.8861 32.321 12.8336 30.2923 12.8981 28.267C12.9757 25.8351 14.1499 24.0254 16.4423 22.949C17.1073 22.6367 17.8253 22.4951 18.5648 22.4947C24.7951 22.4914 31.0255 22.4863 37.2556 22.4961C39.791 22.4999 42.1133 24.3572 42.7278 26.8671C42.854 27.3822 42.916 27.9229 42.9227 28.4527C42.9459 30.3083 42.9267 32.1643 42.9402 34.02C42.9417 34.216 43.0094 34.4375 43.1185 34.6029C44.4622 36.6425 44.2496 39.5677 42.6183 41.285C41.9074 42.0325 41.0353 42.4532 39.9286 42.4822ZM37.9329 28.4403C36.7786 28.4777 35.6727 28.4726 34.5745 28.5592C33.1093 28.6748 31.7332 29.0867 30.5207 29.9295C29.5706 30.5901 28.8856 31.4747 28.2533 32.4057C28.1762 32.5193 28.0919 32.6282 27.9645 32.803C25.4557 29.4614 22.1725 27.8691 17.9092 28.4248C17.9017 28.445 17.8886 28.4639 17.8886 28.4828C17.8861 30.0458 17.8823 31.6088 17.8888 33.1716C17.8893 33.2539 17.9557 33.363 18.0265 33.4136C19.2866 34.3134 19.9095 35.5649 20.0422 37.0271C20.2171 38.9551 19.6724 40.639 18.016 41.874C17.9374 41.9328 17.8895 42.0742 17.888 42.178C17.8775 42.9341 17.8825 43.6904 17.8825 44.4468C17.8825 44.7262 17.8825 45.0056 17.8825 45.3095C21.4738 44.5819 24.8139 44.8832 27.684 47.2369C28.1499 46.902 28.5748 46.558 29.0376 46.2707C31.1954 44.9304 33.5666 44.6774 36.0459 45.0419C36.6699 45.1336 37.2865 45.2715 37.9335 45.3933C37.9335 44.3718 37.9179 43.3645 37.9419 42.3581C37.9505 41.9982 37.8416 41.7659 37.5622 41.5115C36.2908 40.3527 35.84 38.8711 35.9491 37.2281C36.0459 35.7746 36.6045 34.5113 37.7903 33.5504C37.875 33.4817 37.9263 33.3301 37.9274 33.2165C37.9371 32.0469 37.9333 30.8771 37.9333 29.7072C37.9329 29.3157 37.9329 28.9239 37.9329 28.4403ZM15.887 26.6481C17.0266 26.5672 18.1355 26.4471 19.247 26.4172C22.2845 26.3353 24.9774 27.2201 27.2589 29.1944C27.4506 29.3604 27.6392 29.5296 27.873 29.7363C27.9115 29.6721 27.9306 29.6219 27.9649 29.5851C29.4366 28.0093 31.2891 27.1296 33.4348 26.7698C35.3232 26.453 37.2188 26.5326 39.1164 26.6328C39.383 26.6468 39.6489 26.6698 39.9321 26.6899C39.9321 28.7368 39.9321 30.7521 39.9321 32.775C40.2683 32.8215 40.586 32.8656 40.939 32.9143C40.939 32.8083 40.939 32.7101 40.939 32.6118C40.939 31.23 40.9424 29.8483 40.9361 28.4667C40.9348 28.1956 40.9178 27.9211 40.8713 27.6541C40.5461 25.7873 38.9301 24.3982 36.9905 24.4074C30.938 24.4358 24.8853 24.4147 18.8329 24.4249C18.4216 24.4255 17.9933 24.4726 17.6023 24.5894C16.0319 25.0586 14.9125 26.5505 14.885 28.2178C14.8595 29.7503 14.8783 31.2837 14.8783 32.8166C14.8783 32.8652 14.8883 32.9139 14.8949 32.9718C15.2311 32.9054 15.5534 32.8418 15.8872 32.7758C15.887 30.7541 15.887 28.7483 15.887 26.6481ZM18.0886 37.6501C18.0835 36.9042 17.9164 36.208 17.4833 35.5854C16.7032 34.4644 15.4365 34.4493 14.6352 35.5507C13.7864 36.7174 13.7915 38.5763 14.6468 39.741C15.4382 40.8186 16.6769 40.8123 17.4574 39.7262C17.9069 39.1004 18.0833 38.3971 18.0886 37.6501ZM42.0098 37.6853C41.9966 36.8345 41.8086 36.0719 41.2723 35.421C40.5183 34.506 39.4374 34.5001 38.6708 35.4027C38.2335 35.9176 38.0134 36.522 37.9501 37.175C37.8464 38.2481 38.0363 39.2503 38.8468 40.0546C39.5198 40.7223 40.4056 40.7154 41.0877 40.0509C41.7682 39.3881 41.9829 38.5517 42.0098 37.6853Z" fill="white"/>
<path d="M19.6336 13.7219C19.653 9.42706 23.2493 5.97957 27.6885 6.00009C32.1448 6.02061 35.6999 9.50021 35.6764 13.8182C35.653 18.0966 32.0445 21.5292 27.5885 21.512C23.1805 21.4949 19.6143 18.0023 19.6336 13.7219ZM21.6224 13.7426C21.615 16.9513 24.3012 19.5726 27.6101 19.5856C30.9535 19.5988 33.6779 17.0021 33.683 13.7975C33.688 10.544 31.0118 7.93008 27.6667 7.92135C24.3395 7.91281 21.63 10.5223 21.6224 13.7426Z" fill="white"/>
</svg>
